<?xml version="1.0" encoding="UTF-8"?>
<svg xmlns="http://www.w3.org/2000/svg" width="600" height="400" viewBox="0 0 600 400" aria-hidden="true">
  <g fill="none" stroke="#7b5a47" stroke-width="2" opacity="0.18">
    <path d="M120 80c30-40 90-40 120 0s30 100 0 140-90 40-120 0-30-100 0-140z"/>
    <path d="M300 40c20-24 60-24 80 0s20 60 0 84-60 24-80 0-20-60 0-84z"/>
    <path d="M420 120c18-22 54-22 72 0s18 54 0 72-54 22-72 0-18-54 0-72z"/>
    <path d="M40 220c38-18 98-18 136 0s38 56 0 74-98 18-136 0-38-56 0-74z"/>
    <path d="M480 260c30-28 74-28 104 0s30 68 0 96-74 28-104 0-30-68 0-96z"/>
    <!-- leaves -->
    <path d="M220 300c20-36 68-52 106-40"/>
    <path d="M240 320c10-18 34-26 54-20"/>
  </g>
</svg>
